<?xml version="1.0" encoding="UTF-8" ?>
<!DOCTYPE svg PUBLIC "-//W3C//DTD SVG 1.1//EN" "http://www.w3.org/Graphics/SVG/1.1/DTD/svg11.dtd">
<svg width="85pt" height="85pt" viewBox="0 0 85 85" version="1.1" xmlns="http://www.w3.org/2000/svg">
<path fill="#ffffff" d=" M 0.00 0.00 L 85.00 0.00 L 85.00 85.00 L 0.00 85.00 L 0.00 0.00 Z" />
<path fill="#003265" d=" M 35.44 3.85 C 44.61 2.14 54.36 3.82 62.42 8.52 C 72.03 14.04 79.08 23.84 81.18 34.74 C 83.32 44.86 81.14 55.78 75.43 64.39 C 69.28 73.70 59.05 80.15 47.97 81.60 C 30.73 84.28 12.53 73.93 6.17 57.66 C 1.08 45.55 2.61 30.93 10.15 20.16 C 15.95 11.63 25.29 5.65 35.44 3.85 Z" />
<path fill="#ffffff" d=" M 34.48 7.70 C 48.87 4.07 64.93 10.62 72.86 23.10 C 80.27 34.13 80.66 49.36 73.86 60.77 C 67.11 72.49 53.47 79.87 39.93 78.59 C 22.99 77.61 8.20 63.06 6.90 46.14 C 4.85 28.78 17.49 11.43 34.48 7.70 Z" />
<path fill="#0066cc" d=" M 38.41 9.46 C 54.26 7.09 70.71 17.74 74.91 33.22 C 79.89 48.78 71.46 67.11 56.37 73.39 C 42.18 80.04 23.84 74.90 15.15 61.87 C 6.41 49.64 7.45 31.68 17.53 20.54 C 22.83 14.46 30.42 10.49 38.41 9.46 Z" />
<path fill="#ffffff" d=" M 42.52 14.49 C 43.34 14.61 44.97 14.86 45.79 14.98 C 45.30 18.40 44.64 21.79 44.04 25.20 C 45.27 25.41 46.50 25.62 47.73 25.83 C 48.34 22.43 48.92 19.03 49.57 15.64 C 50.39 15.83 52.04 16.22 52.87 16.41 C 52.23 19.71 51.63 23.02 51.04 26.34 C 55.37 27.19 59.90 28.71 62.72 32.30 C 65.57 35.66 65.28 40.67 63.36 44.41 C 59.87 51.32 52.91 55.87 45.53 57.69 C 44.90 61.27 44.30 64.85 43.64 68.42 C 42.82 68.30 41.20 68.06 40.39 67.94 C 40.83 64.73 41.43 61.55 42.05 58.37 C 40.74 58.46 39.43 58.55 38.12 58.64 C 37.66 61.52 37.14 64.38 36.60 67.25 C 35.50 67.00 34.40 66.76 33.30 66.52 C 33.80 63.89 34.29 61.26 34.79 58.63 C 30.57 58.14 26.40 57.38 22.24 56.55 C 26.46 48.79 30.44 40.91 34.60 33.12 C 37.69 33.67 40.79 34.23 43.88 34.77 C 40.35 41.26 37.04 47.87 33.52 54.37 C 39.43 55.12 45.61 52.98 49.85 48.81 C 52.76 45.68 55.46 41.44 54.29 36.99 C 53.36 33.88 49.95 32.68 47.06 32.18 C 39.23 30.79 31.41 29.41 23.58 28.04 C 25.18 26.13 26.81 24.25 28.49 22.41 C 32.57 23.18 36.65 23.91 40.74 24.61 C 41.34 21.24 41.91 17.86 42.52 14.49 Z" />
</svg>
